
<svg width="67" height="54" viewBox="0 0 67 54" fill="none" xmlns="http://www.w3.org/2000/svg">
<path d="M55.275 47.25H11.725C10.8038 47.25 10.05 48.0094 10.05 48.9375V52.3125C10.05 53.2406 10.8038 54 11.725 54H55.275C56.1962 54 56.95 53.2406 56.95 52.3125V48.9375C56.95 48.0094 56.1962 47.25 55.275 47.25ZM61.975 13.5C59.2008 13.5 56.95 15.7676 56.95 18.5625C56.95 19.3113 57.1175 20.0074 57.4106 20.6508L49.8312 25.2281C48.2191 26.1984 46.1358 25.65 45.2041 24.0047L36.672 8.96484C37.7922 8.03672 38.525 6.64453 38.525 5.0625C38.525 2.26758 36.2742 0 33.5 0C30.7258 0 28.475 2.26758 28.475 5.0625C28.475 6.64453 29.2078 8.03672 30.328 8.96484L21.7959 24.0047C20.8642 25.65 18.7705 26.1984 17.1687 25.2281L9.59984 20.6508C9.8825 20.018 10.0605 19.3113 10.0605 18.5625C10.0605 15.7676 7.80969 13.5 5.03547 13.5C2.26125 13.5 0 15.7676 0 18.5625C0 21.3574 2.25078 23.625 5.025 23.625C5.29719 23.625 5.56938 23.5828 5.83109 23.5406L13.4 43.875H53.6L61.1689 23.5406C61.4306 23.5828 61.7028 23.625 61.975 23.625C64.7492 23.625 67 21.3574 67 18.5625C67 15.7676 64.7492 13.5 61.975 13.5Z" fill="white"/>
</svg>
